<?xml version="1.0" encoding="UTF-8"?> <svg xmlns="http://www.w3.org/2000/svg" width="25" height="25" viewBox="0 0 25 25" fill="none"> <g clip-path="url(#clip0_114_2)"> <path d="M12.4988 14.4755C13.5897 14.4755 14.4741 13.5912 14.4741 12.5002C14.4741 11.4093 13.5897 10.5249 12.4988 10.5249C11.4078 10.5249 10.5234 11.4093 10.5234 12.5002C10.5234 13.5912 11.4078 14.4755 12.4988 14.4755Z" fill="#17161C" fill-opacity="0.9"></path> <path d="M15.0275 7.5083H9.97492C9.3206 7.5083 8.69308 7.76822 8.23041 8.2309C7.76774 8.69357 7.50781 9.32109 7.50781 9.9754V15.0264C7.50781 15.6807 7.76774 16.3082 8.23041 16.7709C8.69308 17.2336 9.3206 17.4935 9.97492 17.4935H15.0275C15.6819 17.4935 16.3094 17.2336 16.7721 16.7709C17.2347 16.3082 17.4947 15.6807 17.4947 15.0264V9.97376C17.4942 9.31973 17.2341 8.69263 16.7715 8.23031C16.3088 7.768 15.6816 7.5083 15.0275 7.5083ZM12.5012 15.7336C11.8616 15.734 11.2363 15.5446 10.7043 15.1895C10.1723 14.8344 9.75764 14.3295 9.51265 13.7387C9.26766 13.1478 9.20339 12.4976 9.32797 11.8703C9.45255 11.2429 9.76038 10.6666 10.2125 10.2142C10.6647 9.7618 11.2409 9.45367 11.8681 9.32877C12.4954 9.20387 13.1457 9.26781 13.7366 9.5125C14.3276 9.7572 14.8327 10.1717 15.1881 10.7035C15.5435 11.2352 15.7331 11.8605 15.7331 12.5001C15.7323 13.3571 15.3915 14.1788 14.7857 14.785C14.1798 15.3912 13.3583 15.7323 12.5012 15.7336ZM15.7529 10.0659C15.5946 10.0662 15.4399 10.0196 15.3082 9.93183C15.1765 9.84413 15.0738 9.7193 15.0131 9.57318C14.9523 9.42705 14.9364 9.26619 14.9672 9.11098C14.998 8.95577 15.0741 8.81319 15.186 8.7013C15.2979 8.58941 15.4405 8.51325 15.5957 8.48246C15.7509 8.45167 15.9118 8.46764 16.0579 8.52834C16.204 8.58905 16.3288 8.69175 16.4165 8.82346C16.5043 8.95516 16.5509 9.10993 16.5506 9.26817C16.5501 9.47959 16.466 9.68224 16.3165 9.83174C16.1669 9.98125 15.9643 10.0654 15.7529 10.0659Z" fill="#17161C" fill-opacity="0.9"></path> <path d="M12.5 0C10.0277 0 7.61099 0.733112 5.55538 2.10663C3.49976 3.48015 1.89761 5.43238 0.951511 7.71645C0.0054161 10.0005 -0.242126 12.5139 0.24019 14.9386C0.722505 17.3634 1.91301 19.5907 3.66117 21.3388C5.40933 23.087 7.63661 24.2775 10.0614 24.7598C12.4861 25.2421 14.9995 24.9946 17.2835 24.0485C19.5676 23.1024 21.5199 21.5002 22.8934 19.4446C24.2669 17.389 25 14.9723 25 12.5C25 9.18479 23.683 6.00537 21.3388 3.66116C18.9946 1.31696 15.8152 0 12.5 0ZM18.75 15.0263C18.7491 16.0136 18.3565 16.9603 17.6584 17.6584C16.9603 18.3565 16.0136 18.7491 15.0263 18.75H9.97369C8.98651 18.7487 8.04013 18.356 7.34209 17.6579C6.64404 16.9599 6.25131 16.0135 6.25 15.0263V9.97368C6.25131 8.9865 6.64404 8.04012 7.34209 7.34208C8.04013 6.64404 8.98651 6.2513 9.97369 6.25H15.0263C16.0135 6.2513 16.9599 6.64404 17.6579 7.34208C18.356 8.04012 18.7487 8.9865 18.75 9.97368V15.0263Z" fill="#17161C" fill-opacity="0.9"></path> </g> <defs> <clipPath id="clip0_114_2"> <rect width="25" height="25" fill="white"></rect> </clipPath> </defs> </svg> 