<?xml version="1.0" encoding="UTF-8"?> <svg xmlns="http://www.w3.org/2000/svg" width="139" height="81" viewBox="0 0 139 81" fill="none"> <path d="M138.32 13.4399H0.320312V68.3499H138.32V13.4399Z" stroke="#17161C" stroke-width="0.65" stroke-miterlimit="10"></path> <path d="M23.8334 31.1299V49.47C23.8334 51.22 22.3934 52.66 20.6434 52.66H14.2734V27.95H20.6434C22.3934 27.95 23.8334 29.3799 23.8334 31.1299ZM22.3934 49.47V31.1299C22.3934 30.0799 21.6934 29 20.6434 29H15.7034V51.61H20.6434C21.6934 51.61 22.3934 50.53 22.3934 49.47Z" fill="#17161C"></path> <path d="M29.5316 52.66H28.1016V27.95H29.5316V52.66Z" fill="#17161C"></path> <path d="M36.9159 39.47L34.9559 43.29V52.67H33.5859V27.96H34.9559V40.49L41.3659 27.96H42.8059L37.6559 37.97L43.1559 52.67H41.7159L36.9159 39.47Z" fill="#17161C"></path> <path d="M47.4556 52.66H46.0156V27.95H47.4556V52.66Z" fill="#17161C"></path> <path d="M53.2916 52.66H51.8516V27.95H53.2916V52.66Z" fill="#17161C"></path> <path d="M66.9116 31.1299V49.47C66.9116 51.22 65.4716 52.66 63.7216 52.66H57.3516V27.95H63.7216C65.4716 27.95 66.9116 29.3799 66.9116 31.1299ZM65.4716 49.47V31.1299C65.4716 30.0799 64.7716 29 63.7216 29H58.7816V51.61H63.7216C64.7716 51.61 65.4716 50.53 65.4716 49.47Z" fill="#17161C"></path> <path d="M79.7969 51.61V52.66H70.7969V27.95H79.6569V29H72.2369V38.91H78.2269V39.9599H72.2369V51.6199H79.7969V51.61Z" fill="#17161C"></path> <path d="M91.4806 44.54V49.4799C91.4806 51.2299 90.0406 52.6699 88.2906 52.6699H81.9206V51.6199H88.2906C89.3406 51.6199 90.0406 50.5399 90.0406 49.4799V44.54C90.0406 43.17 89.4806 42.72 88.3306 41.88C87.0006 40.9 85.4606 39.7799 84.0606 38.7999C82.4806 37.7499 81.8906 36.7699 81.8906 35.3699V31.1299C81.8906 29.3799 83.3206 27.95 85.0706 27.95H90.0406V29H85.0706C84.0206 29 83.3206 30.0799 83.3206 31.1299V35.02C83.3206 36.73 83.9506 37.1199 85.1106 37.8899C86.1306 38.5899 88.4706 40.31 89.5906 41.08C91.4106 42.34 91.4806 43.63 91.4806 44.54Z" fill="#17161C"></path> <path d="M96.7659 52.66H95.3359V27.95H96.7659V52.66Z" fill="#17161C"></path> <path d="M110.697 41.36V49.48C110.697 51.23 109.297 52.67 107.547 52.67H103.977C102.227 52.67 100.797 51.23 100.797 49.48V31.14C100.797 29.39 102.227 27.96 103.977 27.96H109.297V29.01H103.977C102.927 29.01 102.227 30.09 102.227 31.14V49.48C102.227 50.53 102.927 51.62 103.977 51.62H107.517C108.567 51.62 109.307 50.54 109.307 49.48V42.44H105.417V41.36H110.707H110.697Z" fill="#17161C"></path> <path d="M124.387 27.95V52.66H121.557L115.917 29.24V52.66H114.477V27.95H116.997L122.987 51.79V27.95H124.387Z" fill="#17161C"></path> <path d="M53.2916 80.6099H51.8516V55.8999H53.2916V80.6099Z" fill="#17161C"></path> <path d="M53.2916 24.71H51.8516V0H53.2916V24.71Z" fill="#17161C"></path> </svg> 