<?xml version="1.0" encoding="UTF-8"?> <svg xmlns="http://www.w3.org/2000/svg" width="25" height="25" viewBox="0 0 25 25" fill="none"> <g clip-path="url(#clip0_114_8)"> <mask id="mask0_114_8" style="mask-type:luminance" maskUnits="userSpaceOnUse" x="0" y="0" width="25" height="25"> <path d="M25 0H0V25H25V0Z" fill="white"></path> </mask> <g mask="url(#mask0_114_8)"> <path d="M9.65296 11.6907H7.93914V9.90283H9.52632C10.1365 9.90283 10.6859 10.0673 10.6859 10.7779C10.6891 11.4292 10.2582 11.6907 9.65296 11.6907ZM10.9967 13.9423C10.9967 14.717 10.4342 14.9588 9.74671 14.9588H7.9375V12.8469H9.77961C10.5247 12.8469 10.9967 13.1578 10.9967 13.9423Z" fill="#17161C" fill-opacity="0.9"></path> <path d="M15.9934 11.7056C15.2599 11.7056 14.7747 12.1612 14.7237 12.8914H17.2122C17.148 12.1546 16.7615 11.7056 15.9934 11.7056ZM15.9934 11.7056C15.2599 11.7056 14.7747 12.1612 14.7237 12.8914H17.2122C17.148 12.1546 16.7615 11.7056 15.9934 11.7056ZM12.5 0C10.0277 0 7.61099 0.733112 5.55538 2.10663C3.49976 3.48015 1.89761 5.43238 0.951511 7.71646C0.0054161 10.0005 -0.242126 12.5139 0.24019 14.9386C0.722505 17.3634 1.91301 19.5907 3.66117 21.3388C5.40933 23.087 7.63661 24.2775 10.0614 24.7598C12.4861 25.2421 14.9995 24.9946 17.2835 24.0485C19.5676 23.1024 21.5199 21.5002 22.8934 19.4446C24.2669 17.389 25 14.9723 25 12.5C25 9.18479 23.683 6.00537 21.3388 3.66117C18.9946 1.31696 15.8152 0 12.5 0ZM14.4112 8.99507H17.5362V9.75165H14.4112V8.99507ZM9.97862 16.2615H6.25001V8.59375H9.86843C11.1842 8.59375 12.3355 8.96546 12.3355 10.4934C12.3355 11.2681 11.9753 11.7648 11.2845 12.0938C12.2303 12.3602 12.6891 13.0806 12.6891 14.0345C12.6908 15.5938 11.3766 16.2615 9.97862 16.2615ZM18.7385 13.8503H14.722C14.722 14.7401 15.1924 15.2648 16.0888 15.2648C16.5526 15.2648 17.153 15.0132 17.2977 14.5395H18.648C18.2336 15.8092 17.3717 16.4063 16.0411 16.4063C14.2829 16.4063 13.1908 15.2204 13.1908 13.4868C13.1908 11.8207 14.3421 10.5477 16.0411 10.5477C17.875 10.5526 18.8668 12.0707 18.7385 13.8503ZM15.9934 11.7122C15.2599 11.7122 14.7747 12.1678 14.7237 12.898H17.2122C17.148 12.1546 16.7615 11.7056 15.9934 11.7056V11.7122Z" fill="#17161C" fill-opacity="0.9"></path> </g> </g> <defs> <clipPath id="clip0_114_8"> <rect width="25" height="25" fill="white"></rect> </clipPath> </defs> </svg> 