<?xml version="1.0" encoding="UTF-8"?> <svg xmlns="http://www.w3.org/2000/svg" id="_Слой_2" data-name="Слой 2" viewBox="0 0 138.65 80.61"> <defs> <style> .cls-1 { fill: #fff; } .cls-2 { fill: none; stroke: #fff; stroke-miterlimit: 10; stroke-width: .65px; } </style> </defs> <g id="Layer_7_Изображение" data-name="Layer 7 Изображение"> <g> <rect class="cls-2" x=".32" y="13.44" width="138" height="54.91"></rect> <g> <path class="cls-1" d="m23.83,31.13v18.34c0,1.75-1.44,3.19-3.19,3.19h-6.37v-24.71h6.37c1.75,0,3.19,1.43,3.19,3.18Zm-1.44,18.34v-18.34c0-1.05-.7-2.13-1.75-2.13h-4.94v22.61h4.94c1.05,0,1.75-1.08,1.75-2.14Z"></path> <path class="cls-1" d="m29.53,52.66h-1.43v-24.71h1.43v24.71Z"></path> <path class="cls-1" d="m36.91,39.47l-1.96,3.82v9.38h-1.37v-24.71h1.37v12.53l6.41-12.53h1.44l-5.15,10.01,5.5,14.7h-1.44l-4.8-13.2Z"></path> <path class="cls-1" d="m47.45,52.66h-1.44v-24.71h1.44v24.71Z"></path> <path class="cls-1" d="m53.29,52.66h-1.44v-24.71h1.44v24.71Z"></path> <path class="cls-1" d="m66.91,31.13v18.34c0,1.75-1.44,3.19-3.19,3.19h-6.37v-24.71h6.37c1.75,0,3.19,1.43,3.19,3.18Zm-1.44,18.34v-18.34c0-1.05-.7-2.13-1.75-2.13h-4.94v22.61h4.94c1.05,0,1.75-1.08,1.75-2.14Z"></path> <path class="cls-1" d="m79.79,51.61v1.05h-9v-24.71h8.86v1.05h-7.42v9.91h5.99v1.05h-5.99v11.66h7.56Z"></path> <path class="cls-1" d="m91.48,44.54v4.94c0,1.75-1.44,3.19-3.19,3.19h-6.37v-1.05h6.37c1.05,0,1.75-1.08,1.75-2.14v-4.94c0-1.37-.56-1.82-1.71-2.66-1.33-.98-2.87-2.1-4.27-3.08-1.58-1.05-2.17-2.03-2.17-3.43v-4.24c0-1.75,1.43-3.18,3.18-3.18h4.97v1.05h-4.97c-1.05,0-1.75,1.08-1.75,2.13v3.89c0,1.71.63,2.1,1.79,2.87,1.02.7,3.36,2.42,4.48,3.19,1.82,1.26,1.89,2.55,1.89,3.46Z"></path> <path class="cls-1" d="m96.76,52.66h-1.43v-24.71h1.43v24.71Z"></path> <path class="cls-1" d="m110.69,41.36v8.12c0,1.75-1.4,3.19-3.15,3.19h-3.57c-1.75,0-3.18-1.44-3.18-3.19v-18.34c0-1.75,1.43-3.18,3.18-3.18h5.32v1.05h-5.32c-1.05,0-1.75,1.08-1.75,2.13v18.34c0,1.05.7,2.14,1.75,2.14h3.54c1.05,0,1.79-1.08,1.79-2.14v-7.04h-3.89v-1.08h5.29Z"></path> <path class="cls-1" d="m124.38,27.95v24.71h-2.83l-5.64-23.42v23.42h-1.44v-24.71h2.52l5.99,23.84v-23.84h1.4Z"></path> </g> <path class="cls-1" d="m53.29,80.61h-1.44v-24.71h1.44v24.71Z"></path> <path class="cls-1" d="m53.29,24.71h-1.44V0h1.44v24.71Z"></path> </g> </g> </svg> 