<?xml version="1.0" encoding="UTF-8"?> <svg xmlns="http://www.w3.org/2000/svg" width="25" height="25" viewBox="0 0 25 25" fill="none"> <path d="M12.4988 14.4754C13.5897 14.4754 14.4741 13.5911 14.4741 12.5001C14.4741 11.4092 13.5897 10.5248 12.4988 10.5248C11.4078 10.5248 10.5234 11.4092 10.5234 12.5001C10.5234 13.5911 11.4078 14.4754 12.4988 14.4754Z" fill="white" fill-opacity="0.9"></path> <path d="M15.0275 7.50812H9.97492C9.3206 7.50812 8.69308 7.76804 8.23041 8.23072C7.76774 8.69339 7.50781 9.32091 7.50781 9.97522V15.0262C7.50781 15.6805 7.76774 16.308 8.23041 16.7707C8.69308 17.2334 9.3206 17.4933 9.97492 17.4933H15.0275C15.6819 17.4933 16.3094 17.2334 16.7721 16.7707C17.2347 16.308 17.4947 15.6805 17.4947 15.0262V9.97358C17.4942 9.31955 17.2341 8.69245 16.7715 8.23013C16.3088 7.76782 15.6816 7.50812 15.0275 7.50812ZM12.5012 15.7334C11.8616 15.7338 11.2363 15.5444 10.7043 15.1893C10.1723 14.8342 9.75764 14.3293 9.51265 13.7385C9.26766 13.1476 9.20339 12.4974 9.32797 11.8701C9.45255 11.2427 9.76038 10.6664 10.2125 10.214C10.6647 9.76162 11.2409 9.45349 11.8681 9.32859C12.4954 9.20369 13.1457 9.26763 13.7366 9.51232C14.3276 9.75702 14.8327 10.1715 15.1881 10.7033C15.5435 11.235 15.7331 11.8603 15.7331 12.4999C15.7323 13.3569 15.3915 14.1786 14.7857 14.7848C14.1798 15.391 13.3583 15.7321 12.5012 15.7334ZM15.7529 10.0657C15.5946 10.066 15.4399 10.0194 15.3082 9.93165C15.1765 9.84395 15.0738 9.71912 15.0131 9.573C14.9523 9.42687 14.9364 9.26601 14.9672 9.1108C14.998 8.95559 15.0741 8.81301 15.186 8.70112C15.2979 8.58923 15.4405 8.51307 15.5957 8.48228C15.7509 8.45149 15.9118 8.46746 16.0579 8.52816C16.204 8.58887 16.3288 8.69157 16.4165 8.82328C16.5043 8.95498 16.5509 9.10975 16.5506 9.26799C16.5501 9.47941 16.466 9.68206 16.3165 9.83156C16.1669 9.98107 15.9643 10.0652 15.7529 10.0657Z" fill="white" fill-opacity="0.9"></path> <path d="M12.5 0C10.0277 0 7.61099 0.733112 5.55538 2.10663C3.49976 3.48015 1.89761 5.43238 0.951511 7.71645C0.00541602 10.0005 -0.242126 12.5139 0.24019 14.9386C0.722505 17.3634 1.91301 19.5907 3.66117 21.3388C5.40933 23.087 7.63661 24.2775 10.0614 24.7598C12.4861 25.2421 14.9995 24.9946 17.2835 24.0485C19.5676 23.1024 21.5199 21.5002 22.8934 19.4446C24.2669 17.389 25 14.9723 25 12.5C25 9.18479 23.683 6.00537 21.3388 3.66116C18.9946 1.31696 15.8152 0 12.5 0ZM18.75 15.0263C18.7491 16.0136 18.3565 16.9603 17.6584 17.6584C16.9603 18.3565 16.0136 18.7491 15.0263 18.75H9.97369C8.98651 18.7487 8.04013 18.356 7.34209 17.6579C6.64404 16.9599 6.25131 16.0135 6.25 15.0263V9.97368C6.25131 8.9865 6.64404 8.04012 7.34209 7.34208C8.04013 6.64404 8.98651 6.2513 9.97369 6.25H15.0263C16.0135 6.2513 16.9599 6.64404 17.6579 7.34208C18.356 8.04012 18.7487 8.9865 18.75 9.97368V15.0263Z" fill="white" fill-opacity="0.9"></path> </svg> 